<svg width="1440" height="1889" viewBox="0 0 1440 1889" fill="none" xmlns="http://www.w3.org/2000/svg">
<g opacity="0.05">
<path d="M-465 63.2145H678.5V66.2309H-465V63.2145Z" fill="#143C64"/>
<path d="M-465 134.131H678.5V137.148H-465V134.131Z" fill="#143C64"/>
<path d="M-465 205.043H678.5V208.065H-465V205.043Z" fill="#143C64"/>
<path d="M-465 275.96H678.5V278.976H-465V275.96Z" fill="#143C64"/>
<path d="M-465 346.871H678.5V349.893H-465V346.871Z" fill="#143C64"/>
<path d="M-465 417.788H678.5V420.81H-465V417.788Z" fill="#143C64"/>
<path d="M-465 488.705H678.5V491.722H-465V488.705Z" fill="#143C64"/>
<path d="M-465 559.616H678.5V562.638H-465V559.616Z" fill="#143C64"/>
<path d="M-465 630.534H678.5V633.55H-465V630.534Z" fill="#143C64"/>
<path d="M-465 701.451H678.5V704.467H-465V701.451Z" fill="#143C64"/>
<path d="M-465 772.362H678.5V775.384H-465V772.362Z" fill="#143C64"/>
<path d="M-465 843.279H678.5V846.296H-465V843.279Z" fill="#143C64"/>
<path d="M-465 914.196H678.5V917.212H-465V914.196Z" fill="#143C64"/>
<path d="M-465 985.107H678.5V988.129H-465V985.107Z" fill="#143C64"/>
<path d="M637.103 -116.995H640.125V1026.51H637.103V-116.995Z" fill="#143C64"/>
<path d="M566.191 -116.995H569.208V1026.51H566.191V-116.995Z" fill="#143C64"/>
<path d="M495.274 -116.995H498.291V1026.51H495.274V-116.995Z" fill="#143C64"/>
<path d="M424.357 -116.995H427.379V1026.51H424.357V-116.995Z" fill="#143C64"/>
<path d="M353.446 -116.995H356.462V1026.51H353.446V-116.995Z" fill="#143C64"/>
<path d="M282.529 -116.995H285.545V1026.51H282.529V-116.995Z" fill="#143C64"/>
<path d="M211.612 -116.995H214.634V1026.51H211.612V-116.995Z" fill="#143C64"/>
<path d="M140.701 -116.995H143.717V1026.51H140.701V-116.995Z" fill="#143C64"/>
<path d="M69.7835 -116.995H72.8055V1026.51H69.7835V-116.995Z" fill="#143C64"/>
<path d="M-1.13342 -116.995H1.88854V1026.51H-1.13342V-116.995Z" fill="#143C64"/>
<path d="M678.5 63.2145H1822V66.2309H678.5V63.2145Z" fill="#143C64"/>
<path d="M678.5 134.131H1822V137.148H678.5V134.131Z" fill="#143C64"/>
<path d="M678.5 205.043H1822V208.065H678.5V205.043Z" fill="#143C64"/>
<path d="M678.5 275.96H1822V278.976H678.5V275.96Z" fill="#143C64"/>
<path d="M678.5 346.871H1822V349.893H678.5V346.871Z" fill="#143C64"/>
<path d="M678.5 417.788H1822V420.81H678.5V417.788Z" fill="#143C64"/>
<path d="M678.5 488.705H1822V491.722H678.5V488.705Z" fill="#143C64"/>
<path d="M678.5 559.616H1822V562.638H678.5V559.616Z" fill="#143C64"/>
<path d="M678.5 630.534H1822V633.55H678.5V630.534Z" fill="#143C64"/>
<path d="M678.5 701.451H1822V704.467H678.5V701.451Z" fill="#143C64"/>
<path d="M678.5 772.362H1822V775.384H678.5V772.362Z" fill="#143C64"/>
<path d="M678.5 843.279H1822V846.296H678.5V843.279Z" fill="#143C64"/>
<path d="M678.5 914.196H1822V917.212H678.5V914.196Z" fill="#143C64"/>
<path d="M678.5 985.107H1822V988.129H678.5V985.107Z" fill="#143C64"/>
<path d="M1426.03 -116.995H1429.05V1026.51H1426.03V-116.995Z" fill="#143C64"/>
<path d="M1355.11 -116.995H1358.13V1026.51H1355.11V-116.995Z" fill="#143C64"/>
<path d="M1284.2 -116.995H1287.22V1026.51H1284.2V-116.995Z" fill="#143C64"/>
<path d="M1213.28 -116.995H1216.31V1026.51H1213.28V-116.995Z" fill="#143C64"/>
<path d="M1142.37 -116.995H1145.39V1026.51H1142.37V-116.995Z" fill="#143C64"/>
<path d="M1071.45 -116.995H1074.47V1026.51H1071.45V-116.995Z" fill="#143C64"/>
<path d="M1000.54 -116.995H1003.56V1026.51H1000.54V-116.995Z" fill="#143C64"/>
<path d="M929.626 -116.995H932.643V1026.51H929.626V-116.995Z" fill="#143C64"/>
<path d="M858.71 -116.995H861.726V1026.51H858.71V-116.995Z" fill="#143C64"/>
<path d="M787.793 -116.995H790.815V1026.51H787.793V-116.995Z" fill="#143C64"/>
<path d="M716.881 -116.995H719.898V1026.51H716.881V-116.995Z" fill="#143C64"/>
<path d="M-465 1064.89H678.5V1067.9H-465V1064.89Z" fill="#143C64"/>
<path d="M-465 1135.8H678.5V1138.82H-465V1135.8Z" fill="#143C64"/>
<path d="M-465 1206.71H678.5V1209.73H-465V1206.71Z" fill="#143C64"/>
<path d="M-465 1277.63H678.5V1280.65H-465V1277.63Z" fill="#143C64"/>
<path d="M-465 1348.54H678.5V1351.56H-465V1348.54Z" fill="#143C64"/>
<path d="M-465 1419.46H678.5V1422.48H-465V1419.46Z" fill="#143C64"/>
<path d="M-465 1490.37H678.5V1493.39H-465V1490.37Z" fill="#143C64"/>
<path d="M-465 1561.29H678.5V1564.31H-465V1561.29Z" fill="#143C64"/>
<path d="M-465 1632.21H678.5V1635.22H-465V1632.21Z" fill="#143C64"/>
<path d="M-465 1703.12H678.5V1706.14H-465V1703.12Z" fill="#143C64"/>
<path d="M-465 1774.03H678.5V1777.05H-465V1774.03Z" fill="#143C64"/>
<path d="M-465 1844.95H678.5V1847.97H-465V1844.95Z" fill="#143C64"/>
<path d="M637.103 1026.51H640.125V2170.01H637.103V1026.51Z" fill="#143C64"/>
<path d="M566.191 1026.51H569.208V2170.01H566.191V1026.51Z" fill="#143C64"/>
<path d="M495.274 1026.51H498.291V2170.01H495.274V1026.51Z" fill="#143C64"/>
<path d="M424.357 1026.51H427.379V2170.01H424.357V1026.51Z" fill="#143C64"/>
<path d="M353.446 1026.51H356.462V2170.01H353.446V1026.51Z" fill="#143C64"/>
<path d="M282.529 1026.51H285.545V2170.01H282.529V1026.51Z" fill="#143C64"/>
<path d="M211.612 1026.51H214.634V2170.01H211.612V1026.51Z" fill="#143C64"/>
<path d="M140.701 1026.51H143.717V2170.01H140.701V1026.51Z" fill="#143C64"/>
<path d="M69.7835 1026.51H72.8055V2170.01H69.7835V1026.51Z" fill="#143C64"/>
<path d="M-1.13342 1026.51H1.88854V2170.01H-1.13342V1026.51Z" fill="#143C64"/>
<path d="M678.5 1064.89H1822V1067.9H678.5V1064.89Z" fill="#143C64"/>
<path d="M678.5 1135.8H1822V1138.82H678.5V1135.8Z" fill="#143C64"/>
<path d="M678.5 1206.71H1822V1209.73H678.5V1206.71Z" fill="#143C64"/>
<path d="M678.5 1277.63H1822V1280.65H678.5V1277.63Z" fill="#143C64"/>
<path d="M678.5 1348.54H1822V1351.56H678.5V1348.54Z" fill="#143C64"/>
<path d="M678.5 1419.46H1822V1422.48H678.5V1419.46Z" fill="#143C64"/>
<path d="M678.5 1490.37H1822V1493.39H678.5V1490.37Z" fill="#143C64"/>
<path d="M678.5 1561.29H1822V1564.31H678.5V1561.29Z" fill="#143C64"/>
<path d="M678.5 1632.21H1822V1635.22H678.5V1632.21Z" fill="#143C64"/>
<path d="M678.5 1703.12H1822V1706.14H678.5V1703.12Z" fill="#143C64"/>
<path d="M678.5 1774.03H1822V1777.05H678.5V1774.03Z" fill="#143C64"/>
<path d="M678.5 1844.95H1822V1847.97H678.5V1844.95Z" fill="#143C64"/>
<path d="M1426.03 1026.51H1429.05V2170.01H1426.03V1026.51Z" fill="#143C64"/>
<path d="M1355.11 1026.51H1358.13V2170.01H1355.11V1026.51Z" fill="#143C64"/>
<path d="M1284.2 1026.51H1287.22V2170.01H1284.2V1026.51Z" fill="#143C64"/>
<path d="M1213.28 1026.51H1216.31V2170.01H1213.28V1026.51Z" fill="#143C64"/>
<path d="M1142.37 1026.51H1145.39V2170.01H1142.37V1026.51Z" fill="#143C64"/>
<path d="M1071.45 1026.51H1074.47V2170.01H1071.45V1026.51Z" fill="#143C64"/>
<path d="M1000.54 1026.51H1003.56V2170.01H1000.54V1026.51Z" fill="#143C64"/>
<path d="M929.626 1026.51H932.643V2170.01H929.626V1026.51Z" fill="#143C64"/>
<path d="M858.71 1026.51H861.726V2170.01H858.71V1026.51Z" fill="#143C64"/>
<path d="M787.793 1026.51H790.815V2170.01H787.793V1026.51Z" fill="#143C64"/>
<path d="M716.881 1026.51H719.898V2170.01H716.881V1026.51Z" fill="#143C64"/>
</g>
</svg>
