<svg width="95" height="95" viewBox="0 0 95 95" fill="none" xmlns="http://www.w3.org/2000/svg">
<path d="M64.3328 59.6217L49.3777 68.256C49.339 68.2784 49.3 68.2994 49.2603 68.3192C49.2204 68.3388 49.18 68.3575 49.139 68.375C49.0981 68.3921 49.0567 68.4083 49.0144 68.4231C48.9726 68.438 48.9303 68.4512 48.8873 68.4634C48.8448 68.4756 48.8017 68.4863 48.7581 68.4961C48.7146 68.5054 48.6708 68.5134 48.627 68.5202C48.5829 68.5272 48.5391 68.5325 48.4946 68.5366C48.4503 68.5406 48.406 68.5432 48.3615 68.5446C48.3171 68.5457 48.2724 68.5457 48.2282 68.5443C48.1835 68.5428 48.1393 68.5402 48.0948 68.5359C48.0506 68.5318 48.0065 68.5261 47.9625 68.5192C47.9185 68.5123 47.8749 68.504 47.8316 68.4944C47.7881 68.4849 47.7452 68.4739 47.7024 68.4617C47.6595 68.4495 47.6174 68.4357 47.5753 68.4208C47.5332 68.4059 47.4919 68.3897 47.451 68.3721C47.4103 68.3549 47.3698 68.336 47.3299 68.3163C47.2902 68.2961 47.2512 68.2752 47.2128 68.2527C47.1742 68.2304 47.1367 68.2067 47.0996 68.1819C47.0625 68.1576 47.0263 68.1315 46.9911 68.1045C46.9556 68.0777 46.921 68.0497 46.8873 68.0206C46.8536 67.9916 46.8209 67.9616 46.7891 67.9304C46.7573 67.8995 46.7265 67.8673 46.6966 67.8342C46.6668 67.8013 46.6384 67.7674 46.6106 67.7326C46.5827 67.6976 46.5561 67.6622 46.5305 67.6258C46.5052 67.5893 46.4807 67.5522 46.4575 67.5141C46.4342 67.4764 46.4122 67.4376 46.3915 67.3984C46.3703 67.359 46.3508 67.3192 46.3324 67.2786C46.314 67.2381 46.2972 67.197 46.2812 67.1554C46.2653 67.1139 46.2507 67.0719 46.2377 67.0294C46.2244 66.9871 46.2124 66.9444 46.2019 66.9008C46.1913 66.8577 46.182 66.8143 46.1741 66.7707C46.1664 66.7267 46.1599 66.6828 46.1544 66.6386C45.9427 64.7795 45.579 62.9505 45.0639 61.1515C44.5488 59.3526 43.8892 57.6086 43.0849 55.9189C42.7912 55.2903 42.4917 54.689 42.1766 54.1431C42.1413 54.082 42.1088 54.0192 42.0797 53.9548C42.0507 53.8904 42.0246 53.8247 42.0018 53.7578C41.979 53.691 41.9597 53.6229 41.9438 53.554C41.9275 53.4853 41.915 53.4156 41.9057 53.3456C41.8965 53.2755 41.8909 53.2053 41.8884 53.1344C41.8861 53.0638 41.8873 52.9931 41.892 52.9227C41.8967 52.8523 41.9046 52.782 41.9159 52.7123C41.9276 52.6425 41.9424 52.5736 41.9609 52.5052C41.9792 52.4369 42.0009 52.3698 42.0257 52.3035C42.0505 52.2373 42.0786 52.1726 42.1097 52.1093C42.1411 52.0457 42.1755 51.984 42.2128 51.924C42.25 51.864 42.2904 51.806 42.3333 51.7497C42.3764 51.6937 42.422 51.6401 42.4705 51.5882C42.5187 51.5365 42.5694 51.4877 42.6226 51.4412C42.6759 51.3943 42.731 51.3505 42.7884 51.3093C42.846 51.268 42.9052 51.2299 42.9667 51.1944C43.0278 51.1591 43.0904 51.1269 43.155 51.0976C43.2194 51.0685 43.2851 51.0425 43.3521 51.02C43.419 50.9972 43.4869 50.9776 43.5558 50.9616C43.6247 50.9457 43.6939 50.9331 43.7639 50.9238C43.8341 50.9148 43.9045 50.9088 43.9751 50.9065C44.0457 50.9042 44.1164 50.9053 44.1871 50.9099C44.2575 50.9146 44.3276 50.9226 44.3974 50.9343C44.4672 50.9459 44.5364 50.9605 44.6046 50.9788C44.6729 50.9971 44.74 51.0188 44.8063 51.0436C44.8722 51.0686 44.9374 51.0968 45.0004 51.128C45.0638 51.1592 45.1255 51.1935 45.1855 51.2308C45.2457 51.2684 45.3038 51.3083 45.3598 51.3514C45.4161 51.3943 45.4699 51.4401 45.5216 51.4884C45.573 51.5368 45.6223 51.5875 45.6688 51.6407C45.7152 51.6939 45.7595 51.7491 45.8004 51.8067C45.8416 51.8641 45.88 51.9234 45.9154 51.9845C46.2916 52.6362 46.6496 53.3496 46.988 54.0743C48.3417 56.9093 49.3247 59.867 49.9375 62.9478L59.4558 57.4524C57.0889 55.3755 55.0144 53.0387 53.2327 50.4424C52.7875 49.8059 52.349 49.139 51.9727 48.4873C51.9374 48.4262 51.905 48.3633 51.8759 48.299C51.8468 48.2346 51.8208 48.1689 51.798 48.102C51.7754 48.035 51.7558 47.9671 51.7399 47.8982C51.7237 47.8295 51.7112 47.7598 51.7019 47.6898C51.6926 47.6197 51.687 47.5495 51.6846 47.4786C51.6823 47.408 51.6834 47.3373 51.6881 47.2669C51.6929 47.1965 51.7007 47.1261 51.7124 47.0564C51.7237 46.9867 51.7388 46.9176 51.7571 46.8494C51.7754 46.7811 51.797 46.714 51.8219 46.6477C51.8467 46.5815 51.8747 46.5168 51.9061 46.4533C51.9373 46.3899 51.9716 46.3282 52.0089 46.2682C52.0462 46.2082 52.0866 46.1502 52.1295 46.0939C52.1725 46.0379 52.2184 45.9841 52.2666 45.9324C52.3149 45.8807 52.3655 45.8319 52.419 45.7852C52.472 45.7385 52.5271 45.6947 52.5848 45.6533C52.6422 45.6121 52.7014 45.5741 52.7628 45.5386C52.824 45.5033 52.8868 45.4709 52.9512 45.4418C53.0155 45.4127 53.0813 45.3867 53.1483 45.3642C53.2151 45.3414 53.283 45.3218 53.3519 45.3058C53.4208 45.2899 53.4901 45.2772 53.5601 45.268C53.6306 45.2588 53.7007 45.253 53.7713 45.2507C53.8422 45.2482 53.9125 45.2495 53.9833 45.2541C54.0537 45.2588 54.124 45.2666 54.1938 45.2783C54.2636 45.2899 54.3325 45.3047 54.4008 45.323C54.4691 45.3413 54.5362 45.3629 54.6024 45.3878C54.6684 45.4128 54.7335 45.4409 54.7969 45.4721C54.8602 45.5032 54.9217 45.5377 54.982 45.5748C55.0421 45.6124 55.0999 45.6525 55.1559 45.6956C55.2122 45.7385 55.266 45.7843 55.3177 45.8326C55.3691 45.881 55.4185 45.9317 55.4649 45.9849C55.5117 46.0379 55.5556 46.0933 55.5965 46.1509C55.6377 46.2082 55.6762 46.2676 55.7115 46.3287C56.0266 46.8746 56.3974 47.4348 56.7827 47.9862C57.8452 49.5307 59.0278 50.9774 60.3301 52.3257C61.6326 53.6742 63.037 54.9062 64.5437 56.0215C64.5795 56.0482 64.6143 56.0758 64.6482 56.1047C64.682 56.1332 64.715 56.163 64.7473 56.1936C64.7795 56.2247 64.8105 56.2564 64.8408 56.2889C64.8708 56.3216 64.8998 56.3552 64.9279 56.3898C64.9562 56.4242 64.9831 56.4595 65.009 56.4957C65.0349 56.5319 65.0597 56.5687 65.0834 56.6066C65.1067 56.6443 65.1293 56.6828 65.1506 56.7216C65.1718 56.7609 65.1919 56.8005 65.2106 56.8408C65.2293 56.8812 65.2471 56.9221 65.2633 56.9635C65.2795 57.0049 65.2944 57.0467 65.3082 57.0891C65.3218 57.1313 65.3342 57.1741 65.3451 57.2171C65.3562 57.2603 65.3658 57.3036 65.3741 57.3473C65.3824 57.3909 65.3894 57.435 65.3952 57.479C65.4006 57.5231 65.4051 57.5675 65.4081 57.6119C65.4109 57.6561 65.4123 57.7006 65.4123 57.7452C65.4126 57.7897 65.4114 57.8342 65.4088 57.8784C65.4061 57.9231 65.4024 57.9672 65.3968 58.0115C65.3914 58.0554 65.3849 58.0995 65.3767 58.1432C65.3689 58.1869 65.3594 58.2305 65.3485 58.2736C65.338 58.3167 65.3258 58.3595 65.3122 58.4019C65.2989 58.4442 65.2845 58.4864 65.2683 58.5277C65.2523 58.5693 65.2352 58.6103 65.2166 58.6506C65.1981 58.6913 65.1784 58.7311 65.1572 58.7703C65.1364 58.8096 65.1142 58.8478 65.0908 58.8859C65.0673 58.9238 65.043 58.9609 65.0174 58.9972C64.9918 59.0335 64.965 59.069 64.9369 59.1037C64.9093 59.1385 64.8803 59.1721 64.8505 59.2051C64.8205 59.2378 64.7894 59.27 64.7575 59.3007C64.7255 59.3319 64.6929 59.3619 64.6591 59.3906C64.6252 59.4198 64.5904 59.4476 64.5552 59.4745C64.5195 59.5012 64.4833 59.5271 64.4462 59.5516C64.4092 59.5761 64.3715 59.5994 64.3328 59.6217Z" fill="url(#paint0_linear_726_80)"/>
<path d="M77.1721 69.6566L51.6485 84.3927C51.5753 84.435 51.501 84.4756 51.4255 84.5141C51.3499 84.5524 51.2733 84.5889 51.1958 84.6233C51.1186 84.6575 51.0403 84.6896 50.9608 84.7198C50.8817 84.7501 50.8019 84.7777 50.721 84.8036C50.6405 84.8293 50.5591 84.8528 50.4771 84.874C50.3951 84.8952 50.3123 84.9145 50.2293 84.9313C50.1463 84.9481 50.0629 84.9628 49.9791 84.975C49.8954 84.9872 49.8112 84.9973 49.7268 85.0049C49.6423 85.0125 49.5579 85.0182 49.4731 85.0213C49.3887 85.0243 49.3038 85.0252 49.2191 85.0237C49.1344 85.0222 49.0499 85.0184 48.9653 85.0125C48.8809 85.0063 48.7966 84.998 48.7127 84.9873C48.6284 84.9766 48.5448 84.9637 48.4614 84.9485C48.3781 84.9335 48.2953 84.9159 48.2127 84.8962C48.1302 84.8766 48.0485 84.8549 47.9672 84.8307C47.8862 84.8063 47.8057 84.7801 47.7257 84.7516C47.6458 84.7231 47.567 84.6925 47.4889 84.6598C47.4107 84.6269 47.3337 84.5921 47.2573 84.5551C47.1813 84.5182 47.106 84.479 47.0319 84.4379C46.9578 84.3968 46.8849 84.3539 46.8131 84.3088C46.7415 84.264 46.6709 84.217 46.6016 84.1682C46.5322 84.1194 46.4644 84.0686 46.398 84.0161C46.3315 83.9637 46.2666 83.9092 46.2031 83.8532C46.1396 83.7972 46.0775 83.7396 46.0169 83.6799C45.9568 83.6204 45.8979 83.5598 45.8409 83.4969C45.784 83.4344 45.7285 83.3702 45.6749 83.3047C45.6212 83.2391 45.5695 83.172 45.5195 83.1036C45.4696 83.0351 45.4217 82.9654 45.3753 82.8945C45.3293 82.8234 45.285 82.7512 45.2428 82.6775C45.2005 82.6042 45.1602 82.5298 45.1219 82.4542C45.0839 82.3784 45.0477 82.3016 45.0138 82.2243C44.9797 82.1466 44.9476 82.0683 44.9179 81.9889L41.3432 72.4202C41.2947 72.2916 41.2524 72.161 41.2157 72.0287C41.1789 71.8965 41.1479 71.7628 41.1231 71.6279C41.0981 71.4927 41.0792 71.3567 41.0661 71.22C41.0534 71.0835 41.0465 70.9463 41.0455 70.8092C41.0445 70.6716 41.0497 70.5348 41.0611 70.3978C41.0724 70.2609 41.0894 70.1245 41.1125 69.9893C41.1359 69.8538 41.1651 69.72 41.2 69.5872C41.2349 69.4543 41.2758 69.3234 41.3224 69.1942C41.3689 69.065 41.4212 68.9383 41.4788 68.8135C41.5368 68.6888 41.5999 68.567 41.6683 68.4483C41.7368 68.3291 41.8105 68.2135 41.8892 68.1007C41.9681 67.9882 42.0514 67.8793 42.1399 67.774C42.2282 67.6692 42.3209 67.568 42.4181 67.4711C42.5156 67.374 42.6167 67.2814 42.7222 67.1936C42.8275 67.1055 42.9366 67.0221 43.0492 66.944C43.162 66.8654 43.278 66.7919 43.3972 66.7239L65.9961 53.6764C66.1146 53.6072 66.2363 53.5435 66.3607 53.4851C66.4847 53.4266 66.6115 53.3738 66.7404 53.3266C66.8692 53.2792 67 53.2379 67.1328 53.2021C67.2653 53.1663 67.3993 53.1367 67.5344 53.1129C67.6697 53.0886 67.8056 53.0709 67.9425 53.0588C68.0795 53.047 68.2165 53.041 68.3539 53.0413C68.4909 53.0414 68.628 53.0477 68.765 53.0598C68.9019 53.0723 69.0377 53.0904 69.1729 53.1147C69.3081 53.1389 69.442 53.169 69.5744 53.2052C69.7069 53.2414 69.8374 53.283 69.9664 53.3305C70.0952 53.3784 70.2217 53.4315 70.346 53.4902C70.4702 53.5489 70.5913 53.6128 70.71 53.6824C70.8285 53.7517 70.9435 53.8264 71.0556 53.9059C71.1672 53.9853 71.2756 54.0697 71.3802 54.159C71.4846 54.2479 71.5849 54.3416 71.681 54.4395C71.7772 54.5375 71.8691 54.6394 71.9563 54.7457L78.4557 62.6258C78.5096 62.6912 78.5614 62.7583 78.6116 62.8266C78.6618 62.8949 78.71 62.9644 78.7566 63.0352C78.803 63.1061 78.8473 63.1782 78.8896 63.2515C78.9324 63.3249 78.9726 63.3994 79.0112 63.4748C79.0495 63.5504 79.0858 63.6267 79.1202 63.7042C79.1545 63.7817 79.1867 63.86 79.2167 63.9393C79.2467 64.0185 79.2744 64.0986 79.3002 64.1792C79.3261 64.26 79.3494 64.3411 79.3708 64.4234C79.392 64.5054 79.4108 64.588 79.4276 64.671C79.4444 64.7541 79.4591 64.8375 79.4713 64.9212C79.4835 65.005 79.4936 65.0891 79.5012 65.1736C79.5088 65.2581 79.5142 65.3427 79.5172 65.4271C79.5203 65.5118 79.5211 65.5964 79.5196 65.6811C79.5181 65.7658 79.5144 65.8507 79.5084 65.9349C79.5023 66.0196 79.4939 66.1037 79.4833 66.1879C79.4725 66.2718 79.4596 66.3554 79.4443 66.4389C79.429 66.5223 79.4115 66.6052 79.3921 66.6875C79.3724 66.77 79.3503 66.8516 79.3261 66.9329C79.3019 67.0142 79.2756 67.0948 79.247 67.1744C79.2185 67.2543 79.1879 67.3331 79.155 67.4114C79.1223 67.4895 79.0873 67.5666 79.0505 67.6429C79.0133 67.719 78.9744 67.7941 78.9333 67.8682C78.8922 67.9423 78.849 68.0154 78.8042 68.087C78.7591 68.1588 78.712 68.2291 78.6632 68.2984C78.6143 68.3678 78.5635 68.4356 78.5111 68.502C78.4586 68.5685 78.4042 68.6334 78.3482 68.6969C78.2921 68.7604 78.2341 68.8224 78.1747 68.8828C78.1153 68.9432 78.0543 69.002 77.9917 69.0588C77.9289 69.1159 77.865 69.1712 77.799 69.2247C77.7334 69.2784 77.6664 69.3301 77.5982 69.3799C77.5297 69.4298 77.4597 69.4779 77.3888 69.5243C77.3177 69.5703 77.2454 69.6143 77.1721 69.6566ZM45.5558 70.4627C45.5175 70.4836 45.4844 70.5108 45.4556 70.5436C45.427 70.5766 45.4049 70.6136 45.3896 70.6544C45.3742 70.6952 45.3663 70.7374 45.3657 70.7809C45.3652 70.8247 45.3723 70.8671 45.3872 70.9081L48.9619 80.4768C48.979 80.5258 49.0063 80.5685 49.0431 80.6049C49.0802 80.6412 49.1235 80.6674 49.1725 80.6837C49.225 80.7034 49.279 80.7103 49.3348 80.705C49.3903 80.6999 49.442 80.6828 49.4899 80.6539L75.0135 65.9179C75.0625 65.8907 75.1032 65.8546 75.1354 65.8091C75.1678 65.7634 75.1887 65.7129 75.1981 65.6578C75.2085 65.6072 75.2074 65.5567 75.1945 65.5064C75.1813 65.4563 75.158 65.4113 75.1242 65.372L68.6248 57.4919C68.5967 57.4585 68.5635 57.4311 68.5254 57.4096C68.4874 57.3885 68.4469 57.3742 68.4039 57.3671C68.3609 57.36 68.3178 57.3606 68.2749 57.3688C68.2321 57.3774 68.192 57.3925 68.1547 57.4152L45.5558 70.4627Z" fill="url(#paint1_linear_726_80)"/>
<path d="M63.0189 48.84C62.7221 49.0121 62.4022 49.1076 62.0594 49.1262L54.0398 49.5698L48.6066 49.6518L45.8654 54.2405L45.8191 54.3161L41.4251 61.0395C41.371 61.1223 41.3114 61.2009 41.2462 61.2759C41.1811 61.3504 41.1114 61.4202 41.0367 61.4853C40.9622 61.5502 40.8834 61.6095 40.8005 61.6639C40.7175 61.718 40.6316 61.7664 40.5421 61.8085C40.4527 61.8509 40.3608 61.887 40.2663 61.9166C40.172 61.9464 40.0758 61.9696 39.9783 61.9859C39.8808 62.0022 39.7823 62.0122 39.6835 62.015C39.5846 62.0182 39.4859 62.0144 39.3873 62.0037C39.2892 61.993 39.1919 61.9757 39.0959 61.9519C38.9997 61.9278 38.9059 61.8973 38.8138 61.8605C38.7222 61.8237 38.6331 61.7806 38.5475 61.7315C38.4614 61.6824 38.3793 61.6275 38.3011 61.5672C38.2224 61.5069 38.1487 61.4413 38.0791 61.3707C38.01 61.3003 37.9455 61.2252 37.8865 61.1457C37.8273 61.0665 37.774 60.9834 37.7265 60.8966C37.6788 60.8099 37.6374 60.7203 37.602 60.6276L33.0465 48.7092L19.8409 44.6862C19.7499 44.6584 19.6609 44.6248 19.5743 44.5855C19.4876 44.546 19.4039 44.5008 19.3233 44.4505C19.2425 44.3998 19.1657 44.3441 19.0922 44.2834C19.019 44.2226 18.9502 44.1574 18.8852 44.0875C18.8206 44.0175 18.7609 43.9435 18.7061 43.8659C18.6512 43.788 18.6017 43.707 18.5572 43.6226C18.5132 43.5384 18.4748 43.4513 18.4422 43.3621C18.4093 43.2726 18.3828 43.1813 18.3622 43.0883C18.3417 42.9955 18.3274 42.9014 18.3191 42.8065C18.3109 42.7117 18.3089 42.617 18.3135 42.5217C18.3178 42.4265 18.3284 42.3323 18.3453 42.2383C18.3621 42.1448 18.3853 42.0525 18.4142 41.9619C18.4434 41.8712 18.4783 41.783 18.5192 41.6967C18.56 41.6108 18.6064 41.5279 18.658 41.4481C18.7097 41.3678 18.7667 41.2919 18.8283 41.2194C18.8904 41.147 18.9566 41.0791 19.0275 41.0155L28.6455 32.3761L28.7937 19.049C28.7971 19.0036 28.8017 18.9582 28.8079 18.9131C28.8137 18.8678 28.8213 18.823 28.8301 18.7783C28.8389 18.7336 28.8491 18.6893 28.8608 18.6449C28.8723 18.6009 28.8852 18.5573 28.8993 18.5138C28.9136 18.4705 28.9289 18.4278 28.9456 18.3855C28.9626 18.343 28.9806 18.3014 29 18.2598C29.0194 18.2187 29.0398 18.178 29.0617 18.1381C29.0836 18.0981 29.1066 18.0587 29.1309 18.02C29.1551 17.9814 29.1803 17.9438 29.2069 17.9065C29.2336 17.8696 29.2611 17.8333 29.2899 17.7978C29.3184 17.7625 29.3481 17.7281 29.3791 17.6944C29.41 17.6608 29.4416 17.6283 29.4745 17.5966C29.5074 17.5649 29.5411 17.5347 29.5759 17.505C29.6104 17.4755 29.6461 17.4468 29.6824 17.4197C29.7188 17.3921 29.7559 17.3657 29.7941 17.3406C29.8322 17.3155 29.8708 17.2917 29.9103 17.2688C29.9499 17.246 29.9898 17.2245 30.0306 17.204C30.0715 17.1835 30.1129 17.1646 30.1549 17.1469C30.1965 17.129 30.2393 17.1124 30.2821 17.0973C30.3252 17.082 30.3682 17.0679 30.4121 17.0553C30.456 17.0427 30.4999 17.0315 30.5445 17.0215C30.5892 17.0115 30.6339 17.003 30.6787 16.996C30.7238 16.9888 30.7689 16.9831 30.8143 16.9785C30.8599 16.9741 30.9051 16.9711 30.9506 16.9694C30.9962 16.9677 31.0419 16.9675 31.0874 16.9685C31.133 16.9695 31.1784 16.9721 31.2237 16.976C31.2695 16.98 31.3144 16.9852 31.3597 16.9917C31.4047 16.9984 31.4494 17.0065 31.494 17.0157C31.5387 17.0253 31.5829 17.0359 31.6268 17.0479C31.6711 17.06 31.7146 17.0734 31.7577 17.0881C31.8008 17.1028 31.8434 17.1186 31.8855 17.1363C31.9277 17.1534 31.9693 17.1721 32.0103 17.1919L43.6261 23.7271L55.9169 19.7174C56.0075 19.6878 56.0994 19.6643 56.1931 19.6468C56.2867 19.6297 56.381 19.6183 56.4763 19.6137C56.5713 19.6089 56.6663 19.6102 56.761 19.6178C56.856 19.6256 56.9501 19.6394 57.0432 19.6595C57.1361 19.6797 57.2273 19.7059 57.317 19.738C57.4069 19.7703 57.4938 19.8082 57.5783 19.8521C57.6629 19.896 57.7442 19.9448 57.8222 19.9994C57.9003 20.054 57.9746 20.1134 58.0447 20.1775C58.115 20.242 58.1804 20.3107 58.2418 20.3837C58.3028 20.4566 58.359 20.5334 58.4097 20.6138C58.4608 20.6943 58.5062 20.7777 58.5462 20.8642C58.586 20.9505 58.6203 21.0392 58.6483 21.1303C58.6764 21.221 58.6987 21.3136 58.7147 21.4074C58.7305 21.5013 58.7401 21.5958 58.7438 21.691C58.7472 21.786 58.7444 21.8811 58.7351 21.9756C58.726 22.0705 58.7106 22.1644 58.6892 22.2572L55.5704 35.705L63.6146 45.6093C63.6638 45.6697 63.7093 45.7327 63.7516 45.7979C63.794 45.8634 63.8325 45.9308 63.8673 46.0003C63.9025 46.07 63.9337 46.1413 63.9607 46.2141C63.9882 46.2871 64.0113 46.3611 64.0306 46.4365C64.0499 46.5119 64.0648 46.5883 64.0759 46.6654C64.0869 46.7425 64.094 46.8199 64.0965 46.8977C64.0991 46.9755 64.0975 47.0533 64.0919 47.1308C64.0859 47.2085 64.0762 47.2856 64.0619 47.362C64.0477 47.4387 64.0297 47.5141 64.0074 47.5888C63.985 47.6633 63.9588 47.7365 63.9284 47.8083C63.8984 47.8803 63.8643 47.9499 63.8268 48.0181C63.7888 48.0862 63.7475 48.152 63.7027 48.2156C63.6579 48.2792 63.6096 48.3401 63.558 48.3987C63.5066 48.4569 63.4522 48.5125 63.3947 48.5649C63.3373 48.6173 63.277 48.6668 63.2142 48.7126C63.1516 48.7588 63.0864 48.801 63.0189 48.84ZM46.291 45.641C46.6151 45.4535 46.9645 45.3571 47.3391 45.3524L53.8885 45.2564L57.5989 45.0494L51.5547 37.6072C51.451 37.4795 51.363 37.3418 51.2909 37.1942C51.2186 37.0463 51.164 36.8924 51.1269 36.7323C51.0898 36.5721 51.0714 36.4096 51.0714 36.245C51.0715 36.0807 51.0901 35.9184 51.1272 35.7581L53.6204 25.0083L44.0639 28.1258C43.9218 28.1721 43.7764 28.2034 43.628 28.2195C43.4792 28.2357 43.3308 28.2364 43.182 28.2219C43.0334 28.207 42.8877 28.1772 42.7449 28.1323C42.6025 28.0876 42.4661 28.0286 42.3358 27.9554L33.0696 22.7409L32.9523 33.3726C32.9505 33.5221 32.9334 33.6697 32.9011 33.8156C32.8686 33.9618 32.8215 34.1028 32.76 34.2387C32.6983 34.3751 32.6235 34.5033 32.5351 34.624C32.4469 34.7445 32.3471 34.8548 32.236 34.9547L24.7578 41.6721L35.3141 44.8878C35.4714 44.9359 35.6213 45.0009 35.7637 45.0829C35.9062 45.1653 36.0377 45.2624 36.1579 45.3746C36.278 45.4868 36.384 45.611 36.4759 45.7476C36.5677 45.8839 36.6429 46.0289 36.7017 46.1827L40.1254 55.1373L42.1814 51.9909L45.517 46.4044C45.7084 46.0823 45.9666 45.8279 46.291 45.641Z" fill="url(#paint2_linear_726_80)"/>
<path d="M67.268 17.2165L63.5292 19.3751C63.4681 19.4104 63.4053 19.4428 63.3409 19.4719C63.2765 19.501 63.2108 19.527 63.1439 19.5498C63.0769 19.5724 63.009 19.592 62.9401 19.6079C62.8714 19.6241 62.8017 19.6366 62.7317 19.6459C62.6616 19.6552 62.5914 19.6607 62.5205 19.6632C62.4499 19.6655 62.3792 19.6644 62.3088 19.6597C62.2381 19.6551 62.1681 19.6471 62.0983 19.6354C62.0286 19.6241 61.9595 19.609 61.8913 19.5907C61.823 19.5724 61.7559 19.5508 61.6896 19.5259C61.6234 19.5011 61.5587 19.4731 61.4952 19.4416C61.4318 19.4105 61.3701 19.3762 61.3101 19.3389C61.2501 19.3016 61.1918 19.2614 61.1358 19.2183C61.0798 19.1753 61.026 19.1294 60.9743 19.0811C60.9226 19.0329 60.8736 18.982 60.8268 18.929C60.7804 18.8758 60.7366 18.8207 60.6953 18.763C60.6541 18.7056 60.6159 18.6461 60.5805 18.585C60.5452 18.5238 60.5128 18.461 60.4837 18.3966C60.4546 18.3323 60.4286 18.2665 60.4058 18.1997C60.3833 18.1327 60.3637 18.0647 60.3477 17.9959C60.3318 17.927 60.319 17.8574 60.3097 17.7874C60.3004 17.7174 60.2949 17.6471 60.2926 17.5765C60.2901 17.5056 60.2914 17.4353 60.296 17.3645C60.3007 17.2941 60.3086 17.2238 60.3202 17.154C60.3318 17.0842 60.3466 17.0153 60.3649 16.947C60.3832 16.8787 60.4049 16.8116 60.4297 16.7454C60.4545 16.6791 60.4826 16.6144 60.514 16.5509C60.5451 16.4876 60.5794 16.4258 60.6167 16.3658C60.6543 16.3056 60.6944 16.2479 60.7373 16.1916C60.7804 16.1356 60.8262 16.0818 60.8745 16.0301C60.9229 15.9787 60.9736 15.9293 61.0268 15.8829C61.0798 15.8361 61.1352 15.7922 61.1926 15.751C61.2502 15.7101 61.3095 15.6716 61.3706 15.6363L65.1094 13.4777C65.1706 13.4424 65.2336 13.4102 65.2978 13.3809C65.3622 13.3518 65.4279 13.3257 65.4949 13.3032C65.5617 13.2804 65.6298 13.2611 65.6986 13.2449C65.7674 13.229 65.837 13.2161 65.907 13.2068C65.9772 13.1979 66.0473 13.192 66.1182 13.1895C66.1888 13.1872 66.2594 13.1884 66.3299 13.1931C66.4006 13.1977 66.4706 13.2057 66.5404 13.2173C66.6102 13.229 66.6792 13.2438 66.7474 13.2621C66.8157 13.2804 66.8828 13.302 66.949 13.3268C67.0153 13.3517 67.0801 13.38 67.1435 13.4111C67.207 13.4425 67.2686 13.4766 67.3288 13.5142C67.3888 13.5515 67.4465 13.5916 67.5028 13.6345C67.5589 13.6775 67.6126 13.7234 67.6643 13.7716C67.716 13.8198 67.7651 13.8708 67.8115 13.924C67.8583 13.977 67.9022 14.0324 67.9434 14.0898C67.9846 14.1471 68.0228 14.2066 68.0581 14.2678C68.0934 14.3289 68.1259 14.3918 68.155 14.4561C68.1842 14.5208 68.2101 14.5863 68.2326 14.6533C68.2554 14.7201 68.275 14.788 68.2909 14.8569C68.3069 14.9258 68.3197 14.9953 68.329 15.0653C68.338 15.1355 68.344 15.2059 68.3463 15.2765C68.3486 15.3471 68.3474 15.4178 68.3427 15.4882C68.3382 15.5589 68.3301 15.629 68.3185 15.6988C68.3069 15.7686 68.292 15.8375 68.2738 15.9058C68.2555 15.974 68.234 16.0414 68.209 16.1074C68.1842 16.1737 68.1561 16.2383 68.1247 16.3018C68.0936 16.3652 68.0592 16.427 68.0219 16.487C67.9844 16.5471 67.9444 16.6052 67.9014 16.6612C67.8583 16.7172 67.8126 16.7713 67.7642 16.8227C67.716 16.8744 67.665 16.9234 67.612 16.9702C67.5588 17.0166 67.5034 17.0606 67.4461 17.1018C67.3887 17.143 67.3292 17.1812 67.268 17.2165Z" fill="url(#paint3_linear_726_80)"/>
<path d="M57.1814 12.4591C57.0759 12.5201 56.966 12.5716 56.8517 12.6141C56.7375 12.6562 56.6205 12.6887 56.5006 12.711C56.381 12.7336 56.2601 12.746 56.1381 12.748C56.0166 12.7501 55.8954 12.742 55.775 12.7234C55.6544 12.7049 55.5364 12.6765 55.4208 12.6382C55.3051 12.5996 55.1936 12.5517 55.0863 12.4944C54.9785 12.437 54.8766 12.3712 54.7804 12.2964C54.6843 12.2219 54.5946 12.1398 54.5123 12.05C54.4298 11.9603 54.3555 11.8643 54.2895 11.762C54.2231 11.6596 54.1662 11.5524 54.1181 11.4405C54.0701 11.3287 54.032 11.2133 54.0032 11.0949C53.9748 10.9763 53.9564 10.8566 53.9483 10.7347C53.9401 10.6132 53.9421 10.4921 53.9547 10.3706C53.9669 10.2493 53.9893 10.1302 54.022 10.0128C54.0545 9.89522 54.0966 9.78166 54.1487 9.67123C54.2004 9.56097 54.2612 9.45583 54.3309 9.35598L56.8002 5.81475C56.8406 5.7568 56.8839 5.70108 56.9297 5.64728C56.9756 5.59349 57.0242 5.54237 57.0751 5.49335C57.126 5.44432 57.1792 5.39785 57.2348 5.35422C57.2902 5.3103 57.3478 5.26938 57.4074 5.23148C57.4669 5.19328 57.5282 5.15826 57.5912 5.12612C57.6542 5.09399 57.7188 5.06519 57.7845 5.03916C57.8501 5.01358 57.9171 4.99105 57.9854 4.97203C58.0532 4.95289 58.1221 4.93696 58.1915 4.92459C58.2613 4.91233 58.3311 4.90322 58.4018 4.89778C58.472 4.89222 58.5428 4.89021 58.6135 4.89135C58.684 4.89293 58.7544 4.89766 58.8246 4.90598C58.8948 4.91431 58.9643 4.9261 59.0334 4.94121C59.1027 4.9566 59.1707 4.97506 59.238 4.99699C59.3051 5.01863 59.3712 5.04391 59.4359 5.07196C59.5004 5.10048 59.564 5.13188 59.6254 5.1664C59.6873 5.20104 59.7471 5.2385 59.805 5.2789C59.8629 5.3193 59.9187 5.36251 59.9725 5.40839C60.0263 5.45426 60.0777 5.50266 60.1264 5.55376C60.1754 5.60469 60.2219 5.65787 60.2655 5.71346C60.3094 5.76888 60.3504 5.82642 60.3883 5.88608C60.4265 5.94557 60.4615 6.00689 60.4936 6.06989C60.5258 6.13288 60.5548 6.19725 60.5806 6.26316C60.6062 6.32878 60.6287 6.39578 60.648 6.46387C60.6669 6.53184 60.6828 6.60073 60.6952 6.67013C60.7077 6.73982 60.7165 6.80973 60.7222 6.88028C60.7275 6.9507 60.7298 7.02131 60.7284 7.09213C60.7268 7.16267 60.7221 7.2331 60.7138 7.30329C60.7054 7.37349 60.6936 7.443 60.6785 7.51211C60.6634 7.58122 60.6447 7.64935 60.623 7.71647C60.6011 7.78375 60.5761 7.84972 60.5478 7.91455C60.5193 7.97909 60.4879 8.04262 60.4533 8.10409C60.419 8.16585 60.3812 8.22572 60.3408 8.28366L57.8714 11.8246C57.6885 12.0875 57.4587 12.299 57.1814 12.4591Z" fill="url(#paint4_linear_726_80)"/>
<path d="M70.6434 27.9616C70.366 28.1221 70.0679 28.2154 69.7486 28.242L65.4473 28.6102C65.3769 28.6162 65.3065 28.6188 65.2358 28.6176C65.1651 28.617 65.0948 28.6125 65.0245 28.6047C64.9542 28.5968 64.8845 28.5855 64.8156 28.5706C64.7464 28.556 64.6783 28.538 64.6109 28.5165C64.5435 28.495 64.4774 28.4705 64.4124 28.4426C64.3475 28.4147 64.2841 28.3836 64.2225 28.3495C64.1605 28.3154 64.1006 28.2784 64.0421 28.2383C63.9841 28.1983 63.9278 28.1555 63.8738 28.11C63.8198 28.0643 63.7682 28.0164 63.7189 27.9656C63.6698 27.9151 63.623 27.8621 63.5788 27.8069C63.5348 27.7519 63.4936 27.6945 63.4548 27.6354C63.4163 27.5761 63.381 27.5149 63.3483 27.4522C63.316 27.3897 63.2866 27.3255 63.2603 27.2599C63.2343 27.1942 63.2115 27.1273 63.1916 27.0596C63.172 26.9917 63.1558 26.9229 63.1429 26.8534C63.1301 26.7839 63.1205 26.714 63.1145 26.6436C63.1085 26.5733 63.1059 26.5028 63.1071 26.4322C63.1077 26.3614 63.1122 26.2911 63.12 26.2208C63.1279 26.1505 63.139 26.081 63.1536 26.0118C63.1684 25.9429 63.1863 25.8745 63.2077 25.8071C63.2292 25.7397 63.2537 25.6736 63.2816 25.6086C63.3095 25.5437 63.3404 25.4805 63.3745 25.4184C63.4086 25.3568 63.4457 25.2966 63.4857 25.2385C63.5257 25.18 63.5683 25.1238 63.614 25.0698C63.6595 25.0158 63.7074 24.9643 63.758 24.9147C63.8088 24.8654 63.8615 24.8188 63.9167 24.7746C63.972 24.7304 64.0291 24.6893 64.0882 24.6506C64.1476 24.6121 64.2086 24.5765 64.2714 24.5441C64.3338 24.5115 64.398 24.4821 64.4637 24.4561C64.5293 24.4298 64.596 24.4067 64.6639 24.3871C64.7318 24.3675 64.8005 24.3513 64.8699 24.3382C64.9394 24.3253 65.0093 24.3158 65.0796 24.3097L69.3809 23.9416C69.5025 23.931 69.624 23.9309 69.7454 23.9412C69.867 23.9514 69.9864 23.9716 70.1045 24.0023C70.2228 24.0325 70.3371 24.0727 70.4483 24.1227C70.5598 24.1726 70.6657 24.2314 70.7671 24.2991C70.8683 24.3672 70.9632 24.4428 71.0513 24.5269C71.1398 24.6109 71.2206 24.7015 71.2935 24.7991C71.3665 24.8969 71.4309 24.9998 71.4862 25.1082C71.542 25.2168 71.5879 25.3291 71.6243 25.4455C71.661 25.5616 71.6875 25.6801 71.7039 25.8011C71.7204 25.9216 71.7263 26.0432 71.7223 26.1647C71.7181 26.2868 71.7039 26.4073 71.6792 26.5266C71.6548 26.6461 71.6204 26.7625 71.576 26.8761C71.532 26.9897 71.4784 27.0987 71.4155 27.2031C71.3529 27.3077 71.2819 27.406 71.2022 27.4985C71.1229 27.5909 71.0362 27.676 70.9426 27.7538C70.8487 27.8315 70.7491 27.9009 70.6434 27.9616Z" fill="url(#paint5_linear_726_80)"/>
<path d="M14.925 47.4367L11.1862 49.5953C11.125 49.6306 11.0622 49.663 10.9978 49.6921C10.9334 49.7212 10.8677 49.7472 10.8009 49.77C10.7339 49.7926 10.6659 49.8122 10.597 49.8281C10.5283 49.8443 10.4586 49.8568 10.3886 49.8661C10.3186 49.8754 10.2483 49.881 10.1774 49.8834C10.1068 49.8857 10.0362 49.8846 9.96573 49.8799C9.89501 49.8753 9.82498 49.8673 9.75518 49.8556C9.68555 49.8443 9.61644 49.8292 9.54819 49.8109C9.47993 49.7926 9.41281 49.771 9.34655 49.7461C9.28029 49.7213 9.21563 49.6933 9.15211 49.6619C9.08875 49.6307 9.02699 49.5964 8.967 49.5591C8.907 49.5218 8.84877 49.4816 8.79276 49.4385C8.73674 49.3955 8.68295 49.3496 8.63125 49.3014C8.57955 49.2531 8.53053 49.2022 8.48406 49.149C8.4373 49.096 8.39354 49.0409 8.35218 48.9832C8.31097 48.9258 8.27278 48.8663 8.23747 48.8052C8.20216 48.744 8.16973 48.6812 8.14065 48.6168C8.11156 48.5525 8.08553 48.4867 8.063 48.4197C8.04018 48.3529 8.02059 48.285 8.00466 48.2161C7.98874 48.1472 7.97591 48.0777 7.96663 48.0076C7.95735 47.9376 7.95179 47.8673 7.94949 47.7967C7.94703 47.7258 7.94833 47.6555 7.95289 47.5848C7.95761 47.5143 7.96548 47.444 7.97711 47.3742C7.98874 47.3044 8.00356 47.2355 8.02185 47.1672C8.04014 47.099 8.06178 47.0318 8.08661 46.9656C8.11143 46.8993 8.13949 46.8347 8.1709 46.7711C8.20202 46.7078 8.23637 46.646 8.27366 46.586C8.31124 46.5259 8.35135 46.4681 8.39423 46.4118C8.43729 46.3558 8.48316 46.302 8.53139 46.2503C8.5798 46.1989 8.63056 46.1496 8.68374 46.1031C8.73675 46.0563 8.79217 46.0124 8.84954 45.9712C8.90708 45.9303 8.96641 45.8918 9.02757 45.8565L12.7664 43.6979C12.8275 43.6626 12.8905 43.6305 12.9547 43.6011C13.0191 43.572 13.0848 43.546 13.1518 43.5234C13.2187 43.5006 13.2868 43.4813 13.3555 43.4651C13.4244 43.4492 13.4939 43.4363 13.5639 43.4271C13.6341 43.4181 13.7042 43.4122 13.7751 43.4098C13.8457 43.4075 13.9164 43.4086 13.9868 43.4133C14.0575 43.4179 14.1275 43.4259 14.1973 43.4375C14.2671 43.4492 14.3361 43.464 14.4043 43.4823C14.4726 43.5006 14.5397 43.5222 14.606 43.547C14.6722 43.5719 14.7371 43.6002 14.8004 43.6313C14.8639 43.6627 14.9255 43.6968 14.9857 43.7344C15.0457 43.7717 15.1038 43.8116 15.1598 43.8547C15.2158 43.8977 15.2696 43.9436 15.3213 43.9918C15.373 44.0401 15.422 44.091 15.4685 44.1442C15.5152 44.1972 15.5591 44.2526 15.6003 44.31C15.6415 44.3673 15.6797 44.4268 15.7151 44.488C15.7504 44.5492 15.7828 44.612 15.8119 44.6764C15.8411 44.741 15.867 44.8065 15.8895 44.8735C15.9123 44.9403 15.9319 45.0082 15.9479 45.0771C15.9638 45.146 15.9766 45.2155 15.9859 45.2856C15.9952 45.3556 16.0009 45.4261 16.0032 45.4967C16.0055 45.5673 16.0044 45.638 15.9996 45.7084C15.9951 45.7792 15.987 45.8492 15.9754 45.919C15.9638 45.9888 15.949 46.0577 15.9307 46.126C15.9124 46.1942 15.8909 46.2616 15.8659 46.3276C15.8411 46.3939 15.813 46.4585 15.7816 46.5221C15.7505 46.5854 15.7162 46.6472 15.6789 46.7072C15.6413 46.7673 15.6013 46.8254 15.5583 46.8814C15.5152 46.9374 15.4695 46.9915 15.4211 47.0429C15.3729 47.0946 15.322 47.1436 15.2689 47.1904C15.2158 47.2369 15.1604 47.2808 15.103 47.322C15.0456 47.3632 14.9861 47.4014 14.925 47.4367Z" fill="url(#paint6_linear_726_80)"/>
<path d="M12.1094 38.4815C11.8322 38.6416 11.534 38.7348 11.2149 38.7618L6.91364 39.1299C6.84285 39.1366 6.77213 39.1393 6.70106 39.1388C6.62999 39.1383 6.55931 39.1345 6.48887 39.1271C6.41827 39.1194 6.34823 39.1087 6.27871 39.0942C6.20919 39.0797 6.14081 39.0619 6.07283 39.0407C6.0053 39.0197 5.93875 38.995 5.87322 38.9675C5.80798 38.9397 5.74434 38.9088 5.682 38.8748C5.61967 38.8408 5.55909 38.8038 5.50057 38.7637C5.44177 38.7238 5.38546 38.681 5.33109 38.6354C5.27672 38.5899 5.22445 38.542 5.17485 38.4914C5.12508 38.4405 5.07832 38.3875 5.03382 38.3324C4.98945 38.2768 4.94779 38.2194 4.90902 38.1602C4.87008 38.1007 4.83431 38.0395 4.80172 37.9763C4.76901 37.9137 4.73947 37.8492 4.71298 37.7833C4.68649 37.7175 4.66351 37.6503 4.64374 37.5821C4.62414 37.5142 4.60776 37.4452 4.59477 37.3754C4.58177 37.3056 4.57204 37.2354 4.56614 37.1646C4.55996 37.0939 4.5575 37.023 4.55846 36.9521C4.55943 36.8811 4.5637 36.8106 4.57186 36.7401C4.57956 36.6695 4.59102 36.5994 4.60596 36.53C4.62061 36.4608 4.63873 36.3922 4.66049 36.3247C4.68197 36.2573 4.70692 36.1905 4.7351 36.1254C4.76299 36.0605 4.79439 35.9969 4.82887 35.9347C4.86305 35.8727 4.90063 35.8125 4.9407 35.754C4.98122 35.6956 5.02427 35.6396 5.07026 35.5853C5.11626 35.5311 5.16449 35.4794 5.21555 35.4299C5.26648 35.3809 5.31978 35.334 5.37549 35.2899C5.43091 35.246 5.48857 35.2046 5.54835 35.1662C5.60797 35.1276 5.66958 35.0924 5.73241 35.06C5.79569 35.0277 5.86034 34.9984 5.92625 34.9727C5.99229 34.9465 6.05958 34.9238 6.12767 34.9045C6.19621 34.8853 6.2651 34.8693 6.33508 34.8566C6.40477 34.8441 6.47497 34.8351 6.54597 34.8295L10.8473 34.4613C10.9686 34.4509 11.09 34.4508 11.2114 34.4611C11.3328 34.4714 11.4526 34.4919 11.5706 34.5222C11.6885 34.5526 11.803 34.5931 11.914 34.6428C12.0253 34.6928 12.1315 34.7515 12.2327 34.8196C12.3338 34.8874 12.4286 34.9631 12.5168 35.0472C12.6052 35.1311 12.6858 35.222 12.7589 35.3193C12.8318 35.4169 12.8959 35.5199 12.9516 35.6285C13.007 35.737 13.0529 35.8493 13.0896 35.9654C13.126 36.0817 13.1525 36.2003 13.169 36.3208C13.1854 36.4417 13.1914 36.5628 13.1876 36.6847C13.1832 36.8064 13.169 36.927 13.1445 37.0465C13.1202 37.1656 13.0855 37.2821 13.0414 37.3957C12.9974 37.5092 12.9438 37.6182 12.8811 37.7229C12.8186 37.8271 12.7473 37.9255 12.6681 38.0182C12.5887 38.1105 12.502 38.1956 12.4085 38.2734C12.3145 38.3512 12.215 38.4206 12.1094 38.4815Z" fill="url(#paint7_linear_726_80)"/>
<path d="M18.804 57.8911C18.6985 57.9523 18.5887 58.0038 18.4746 58.0462C18.3602 58.0884 18.2432 58.121 18.1235 58.1435C18.0035 58.1663 17.8828 58.1783 17.761 58.1805C17.6392 58.1827 17.5178 58.1744 17.3976 58.1561C17.2769 58.1376 17.159 58.1092 17.0432 58.0706C16.9277 58.0323 16.8161 57.9844 16.7084 57.927C16.6011 57.8697 16.499 57.8036 16.4026 57.7292C16.3064 57.6544 16.217 57.5722 16.1344 57.4825C16.0519 57.3929 15.9776 57.2969 15.9115 57.1943C15.8452 57.0922 15.7883 56.985 15.7401 56.8728C15.6923 56.7608 15.6539 56.6456 15.6255 56.527C15.597 56.4085 15.5786 56.2887 15.5706 56.1668C15.5624 56.0453 15.5645 55.9237 15.5769 55.8027C15.5892 55.6814 15.6119 55.5621 15.6445 55.4448C15.677 55.3272 15.7194 55.2134 15.7712 55.1032C15.8232 54.9928 15.8841 54.8876 15.9537 54.7878L18.4232 51.2468C18.4636 51.1889 18.5068 51.1332 18.5527 51.0794C18.5987 51.0259 18.6471 50.9744 18.6981 50.9254C18.749 50.8764 18.8024 50.8302 18.8579 50.7866C18.9134 50.7427 18.9709 50.7017 19.0306 50.6638C19.0901 50.6256 19.1511 50.5908 19.2141 50.5587C19.2772 50.5268 19.3416 50.4977 19.4072 50.4721C19.4731 50.4464 19.5401 50.4239 19.6079 50.4047C19.6762 50.3857 19.7448 50.3699 19.8145 50.3574C19.8839 50.345 19.9541 50.336 20.0245 50.3308C20.0948 50.3252 20.1655 50.3232 20.2359 50.3245C20.3067 50.3259 20.3772 50.3306 20.4471 50.3391C20.5173 50.3475 20.5871 50.3591 20.6559 50.3744C20.725 50.3895 20.7931 50.4082 20.8603 50.4298C20.9275 50.4518 20.9935 50.4768 21.0581 50.5053C21.1229 50.5336 21.1859 50.5649 21.2479 50.5996C21.3093 50.6341 21.3691 50.6715 21.427 50.7119C21.4849 50.7523 21.541 50.7954 21.5945 50.8414C21.6483 50.8873 21.6997 50.9357 21.7487 50.9866C21.7977 51.0376 21.8439 51.0909 21.8878 51.1463C21.9314 51.2019 21.9724 51.2594 22.0104 51.3186C22.0486 51.3781 22.0836 51.4395 22.1157 51.5025C22.1479 51.5655 22.1767 51.63 22.2023 51.6956C22.2283 51.7614 22.2508 51.8284 22.2697 51.8963C22.289 51.9644 22.3047 52.033 22.3173 52.1027C22.3297 52.1721 22.3386 52.2423 22.3442 52.3126C22.3499 52.3831 22.3518 52.4536 22.3506 52.5242C22.3491 52.5948 22.3443 52.6652 22.336 52.7354C22.3277 52.8056 22.3159 52.8751 22.3008 52.9442C22.2857 53.0133 22.2672 53.0813 22.2456 53.1484C22.2236 53.2157 22.1987 53.2817 22.1703 53.3465C22.142 53.4113 22.1107 53.4744 22.0762 53.5359C22.0415 53.5978 22.0041 53.6575 21.9637 53.7154L19.4942 57.2564C19.3115 57.5196 19.0817 57.7311 18.804 57.8911Z" fill="url(#paint8_linear_726_80)"/>
<defs>
<linearGradient id="paint0_linear_726_80" x1="47.8856" y1="48.3679" x2="74.9372" y2="52.29" gradientUnits="userSpaceOnUse">
<stop stop-color="#143C64"/>
<stop offset="1" stop-color="#C70C2C"/>
</linearGradient>
<linearGradient id="paint1_linear_726_80" x1="54.7301" y1="60.1952" x2="89.7402" y2="74.8487" gradientUnits="userSpaceOnUse">
<stop stop-color="#143C64"/>
<stop offset="1" stop-color="#C70C2C"/>
</linearGradient>
<linearGradient id="paint2_linear_726_80" x1="29.9567" y1="17.2747" x2="90.8862" y2="22.1193" gradientUnits="userSpaceOnUse">
<stop stop-color="#143C64"/>
<stop offset="1" stop-color="#C70C2C"/>
</linearGradient>
<linearGradient id="paint3_linear_726_80" x1="63.2475" y1="14.5559" x2="71.0276" y2="17.8126" gradientUnits="userSpaceOnUse">
<stop stop-color="#143C64"/>
<stop offset="1" stop-color="#C70C2C"/>
</linearGradient>
<linearGradient id="paint4_linear_726_80" x1="55.8068" y1="6.15753" x2="65.5776" y2="8.10924" gradientUnits="userSpaceOnUse">
<stop stop-color="#143C64"/>
<stop offset="1" stop-color="#C70C2C"/>
</linearGradient>
<linearGradient id="paint5_linear_726_80" x1="65.8859" y1="23.6139" x2="75.6561" y2="25.5659" gradientUnits="userSpaceOnUse">
<stop stop-color="#143C64"/>
<stop offset="1" stop-color="#C70C2C"/>
</linearGradient>
<linearGradient id="paint6_linear_726_80" x1="10.9044" y1="44.7761" x2="18.6845" y2="48.0328" gradientUnits="userSpaceOnUse">
<stop stop-color="#143C64"/>
<stop offset="1" stop-color="#C70C2C"/>
</linearGradient>
<linearGradient id="paint7_linear_726_80" x1="7.34273" y1="34.1318" x2="17.1251" y2="36.0886" gradientUnits="userSpaceOnUse">
<stop stop-color="#143C64"/>
<stop offset="1" stop-color="#C70C2C"/>
</linearGradient>
<linearGradient id="paint8_linear_726_80" x1="17.429" y1="51.5904" x2="27.1993" y2="53.5425" gradientUnits="userSpaceOnUse">
<stop stop-color="#143C64"/>
<stop offset="1" stop-color="#C70C2C"/>
</linearGradient>
</defs>
</svg>
