<svg width="59" height="59" viewBox="0 0 59 59" fill="none" xmlns="http://www.w3.org/2000/svg">
<path fill-rule="evenodd" clip-rule="evenodd" d="M58.0805 2.31343C57.883 1.64116 57.3587 1.11685 56.6864 0.919359C56.6864 0.919359 39.1557 -4.2977 24.7317 10.1239C17.6241 17.2315 10.2282 28.8646 9.66018 35.5332C9.6079 36.137 9.82466 36.7353 10.2554 37.1633L21.8366 48.7445C22.2646 49.1752 22.8629 49.392 23.4667 49.3397C30.1353 48.7717 41.7684 41.3758 48.876 34.2682C63.2976 19.8441 58.0805 2.31343 58.0805 2.31343ZM54.392 4.61028C55.1248 8.37548 56.5162 20.8047 45.9643 31.3565C39.8473 37.4764 30.1573 44.049 24.0319 45.119L13.8809 34.9679C14.9537 28.8426 21.5235 19.1526 27.6434 13.0355C38.1952 2.48371 50.6271 3.87503 54.3896 4.60753L54.392 4.61028Z" fill="url(#paint0_linear_728_1450)"/>
<path fill-rule="evenodd" clip-rule="evenodd" d="M45.9809 13.0191C42.515 9.55288 36.8837 9.55288 33.4174 13.0191C29.9515 16.485 29.9515 22.1163 33.4174 25.5825C36.8837 29.0484 42.515 29.0484 45.9809 25.5825C49.4471 22.1163 49.4471 16.485 45.9809 13.0191ZM43.0692 15.9307C44.9298 17.7913 44.9298 20.81 43.0692 22.6709C41.2086 24.5315 38.19 24.5315 36.3291 22.6709C34.4685 20.81 34.4685 17.7913 36.3291 15.9307C38.19 14.0702 41.2086 14.0702 43.0692 15.9307Z" fill="url(#paint1_linear_728_1450)"/>
<path fill-rule="evenodd" clip-rule="evenodd" d="M34.4547 41.2167L17.7831 24.545C16.9818 23.7435 15.6755 23.7435 14.8742 24.545C14.0701 25.3491 14.0701 26.6527 14.8742 27.4567L31.5431 44.1256C32.3471 44.9296 33.6507 44.9296 34.4547 44.1256C35.2563 43.3243 35.2563 42.018 34.4547 41.2167Z" fill="url(#paint2_linear_728_1450)"/>
<path fill-rule="evenodd" clip-rule="evenodd" d="M38.6152 39.3834C38.6152 39.3834 38.2007 43.9199 37.9154 47.0621C37.8112 48.2091 37.1386 49.2244 36.1261 49.7707L29.2105 53.4946V47.2898C29.2105 46.1538 28.2884 45.2314 27.1524 45.2314C26.016 45.2314 25.094 46.1538 25.094 47.2898V56.9416C25.094 57.6662 25.4755 58.3384 26.0958 58.709C26.7186 59.0792 27.4899 59.0984 28.1291 58.7527C28.1291 58.7527 34.4027 55.3745 38.0772 53.3959C40.3083 52.1966 41.7876 49.9572 42.0154 47.4353C42.3006 44.2929 42.7152 39.7539 42.7152 39.7539C42.8167 38.6234 41.9824 37.6215 40.8518 37.52C39.7182 37.4158 38.7167 38.2501 38.6152 39.3834Z" fill="url(#paint3_linear_728_1450)"/>
<path fill-rule="evenodd" clip-rule="evenodd" d="M19.2459 16.2847C19.2459 16.2847 14.7069 16.699 11.5645 16.9845C9.04263 17.2123 6.80325 18.6916 5.60393 20.9228C3.62533 24.5972 0.247156 30.8708 0.247156 30.8708C-0.0986094 31.51 -0.0793494 32.2814 0.290874 32.9041C0.661402 33.5244 1.33367 33.9059 2.05822 33.9059H11.71C12.8461 33.9059 13.7684 32.9839 13.7684 31.8475C13.7684 30.7115 12.8461 29.7895 11.71 29.7895H5.50518L9.22911 22.8738C9.77543 21.8613 10.7907 21.1887 11.9378 21.0845C15.0799 20.7992 19.6165 20.3847 19.6165 20.3847C20.7497 20.2832 21.584 19.2814 21.4798 18.1481C21.3783 17.0175 20.3765 16.1832 19.2459 16.2847Z" fill="url(#paint4_linear_728_1450)"/>
<path fill-rule="evenodd" clip-rule="evenodd" d="M5.93043 40.5059L1.56694 44.8694C0.765652 45.6734 0.765652 46.977 1.56694 47.781C2.37128 48.5823 3.67485 48.5823 4.47889 47.781L8.84238 43.4175C9.64642 42.6135 9.64642 41.3099 8.84238 40.5059C8.03804 39.7018 6.73447 39.7018 5.93043 40.5059Z" fill="url(#paint5_linear_728_1450)"/>
<path fill-rule="evenodd" clip-rule="evenodd" d="M10.7577 45.3332L2.533 53.5552C1.72897 54.3592 1.72897 55.6628 2.533 56.4668C3.33704 57.2709 4.64061 57.2709 5.44465 56.4668L13.6666 48.2421C14.4709 47.4408 14.4709 46.1345 13.6666 45.3332C12.8653 44.5289 11.559 44.5289 10.7577 45.3332Z" fill="url(#paint6_linear_728_1450)"/>
<path fill-rule="evenodd" clip-rule="evenodd" d="M15.5822 50.1575L11.2187 54.521C10.4174 55.325 10.4174 56.6286 11.2187 57.4329C12.0228 58.2342 13.3263 58.2342 14.1304 57.4329L18.4939 53.0694C19.2979 52.2654 19.2979 50.9618 18.4939 50.1575C17.6898 49.3534 16.3862 49.3534 15.5822 50.1575Z" fill="url(#paint7_linear_728_1450)"/>
<defs>
<linearGradient id="paint0_linear_728_1450" x1="34.3661" y1="0.031806" x2="89.9622" y2="36.54" gradientUnits="userSpaceOnUse">
<stop stop-color="#143C64"/>
<stop offset="1" stop-color="#C70C2C"/>
</linearGradient>
<linearGradient id="paint1_linear_728_1450" x1="39.7136" y1="10.4309" x2="59.7254" y2="23.572" gradientUnits="userSpaceOnUse">
<stop stop-color="#143C64"/>
<stop offset="1" stop-color="#C70C2C"/>
</linearGradient>
<linearGradient id="paint2_linear_728_1450" x1="24.6804" y1="23.9572" x2="48.097" y2="39.3342" gradientUnits="userSpaceOnUse">
<stop stop-color="#143C64"/>
<stop offset="1" stop-color="#C70C2C"/>
</linearGradient>
<linearGradient id="paint3_linear_728_1450" x1="33.923" y1="37.5251" x2="55.9551" y2="49.3947" gradientUnits="userSpaceOnUse">
<stop stop-color="#143C64"/>
<stop offset="1" stop-color="#C70C2C"/>
</linearGradient>
<linearGradient id="paint4_linear_728_1450" x1="10.7617" y1="16.2877" x2="31.8808" y2="33.1916" gradientUnits="userSpaceOnUse">
<stop stop-color="#143C64"/>
<stop offset="1" stop-color="#C70C2C"/>
</linearGradient>
<linearGradient id="paint5_linear_728_1450" x1="5.21255" y1="39.9083" x2="14.7655" y2="46.1816" gradientUnits="userSpaceOnUse">
<stop stop-color="#143C64"/>
<stop offset="1" stop-color="#C70C2C"/>
</linearGradient>
<linearGradient id="paint6_linear_728_1450" x1="8.1099" y1="44.7379" x2="22.0123" y2="53.8672" gradientUnits="userSpaceOnUse">
<stop stop-color="#143C64"/>
<stop offset="1" stop-color="#C70C2C"/>
</linearGradient>
<linearGradient id="paint7_linear_728_1450" x1="14.8642" y1="49.5599" x2="24.4172" y2="55.8329" gradientUnits="userSpaceOnUse">
<stop stop-color="#143C64"/>
<stop offset="1" stop-color="#C70C2C"/>
</linearGradient>
</defs>
</svg>
