<svg width="55" height="72" viewBox="0 0 55 72" fill="none" xmlns="http://www.w3.org/2000/svg">
<path d="M40.6417 19.5587C37.4604 20.2319 34.7951 21.6094 32.6267 23.834C29.2642 27.2844 27.083 31.3924 26.008 36.0854C25.808 36.9594 25.666 37.8465 25.4785 38.8219C23.5208 29.8858 20.0246 22.2962 10.0611 19.3917C13.2899 18.7833 15.8361 17.425 17.968 15.3247C21.5594 11.7868 23.8007 7.51042 24.8844 2.60868C25.0639 1.79688 25.1989 0.975 25.3854 0C27.2187 9.06042 30.8208 16.5427 40.6417 19.5587Z" fill="url(#paint0_linear_727_119)"/>
<path d="M25.5986 51.9677C32.7573 49.7816 35.3868 44.2375 36.9809 37.5823C37.2243 38.2187 37.4042 38.6229 37.532 39.0423C37.6816 39.5337 37.7691 40.0444 37.9118 40.5382C39.108 44.6847 41.1358 48.2531 45.0056 50.4792C46.0028 51.0531 47.0875 51.4753 48.234 52.0153C41.3806 54.301 38.659 59.7663 37.0327 66.4167C35.3993 59.8281 32.7153 54.2903 25.5986 51.9677Z" fill="url(#paint1_linear_727_119)"/>
<mask id="mask0_727_119" style="mask-type:luminance" maskUnits="userSpaceOnUse" x="0" y="35" width="18" height="23">
<path d="M0 35.8243H17.0222V57.1577H0V35.8243Z" fill="white"/>
</mask>
<g mask="url(#mask0_727_119)">
<path d="M8.27467 57.0904C6.9764 52.1585 5.43439 48.9845 0.00140381 46.5967C5.12536 44.6644 6.97224 41.0036 8.45627 35.8887C9.76981 40.738 11.7424 44.8425 17.0181 46.5342C14.6344 47.5647 12.5191 48.7001 11.3073 50.7855C10.1243 52.8213 9.24724 55.0352 8.27467 57.0904Z" fill="url(#paint2_linear_727_119)"/>
</g>
<mask id="mask1_727_119" style="mask-type:luminance" maskUnits="userSpaceOnUse" x="43" y="21" width="12" height="16">
<path d="M43.6 21.9576H54.6666V36.1799H43.6V21.9576Z" fill="white"/>
</mask>
<g mask="url(#mask1_727_119)">
<path d="M43.6548 28.9804C46.6503 27.8137 47.9271 25.1748 49.008 22.0394C49.9003 25.2835 51.2601 27.8179 54.6628 29.1103C51.3847 30.4658 49.8531 32.9075 49.1014 36.1419C48.3479 34.6408 47.851 33.186 46.9684 32.0248C46.1017 30.8842 44.842 30.0426 43.6548 28.9804Z" fill="url(#paint3_linear_727_119)"/>
</g>
<path d="M24.8875 66.2216C21.9243 67.3025 20.9635 69.4925 20.042 72.0001C19.2611 69.3578 18.125 67.3345 15.4889 66.2647C17.9715 65.1248 19.2118 63.181 20.0885 60.4709C20.949 63.0605 22.024 65.0841 24.8875 66.2216Z" fill="url(#paint4_linear_727_119)"/>
<defs>
<linearGradient id="paint0_linear_727_119" x1="25.3761" y1="0.025022" x2="64.277" y2="20.1472" gradientUnits="userSpaceOnUse">
<stop stop-color="#143C64"/>
<stop offset="1" stop-color="#C70C2C"/>
</linearGradient>
<linearGradient id="paint1_linear_727_119" x1="36.9347" y1="37.6009" x2="65.7703" y2="52.4655" gradientUnits="userSpaceOnUse">
<stop stop-color="#143C64"/>
<stop offset="1" stop-color="#C70C2C"/>
</linearGradient>
<linearGradient id="paint2_linear_727_119" x1="8.52351" y1="35.9023" x2="29.997" y2="47.2199" gradientUnits="userSpaceOnUse">
<stop stop-color="#143C64"/>
<stop offset="1" stop-color="#C70C2C"/>
</linearGradient>
<linearGradient id="paint3_linear_727_119" x1="49.1677" y1="22.0485" x2="63.2243" y2="29.2536" gradientUnits="userSpaceOnUse">
<stop stop-color="#143C64"/>
<stop offset="1" stop-color="#C70C2C"/>
</linearGradient>
<linearGradient id="paint4_linear_727_119" x1="20.1958" y1="60.4784" x2="31.975" y2="66.784" gradientUnits="userSpaceOnUse">
<stop stop-color="#143C64"/>
<stop offset="1" stop-color="#C70C2C"/>
</linearGradient>
</defs>
</svg>
