<svg width="51" height="49" viewBox="0 0 51 49" fill="none" xmlns="http://www.w3.org/2000/svg">
<path fill-rule="evenodd" clip-rule="evenodd" d="M15.3419 15.7461C15.4499 16.7268 15.5801 16.8353 18.3807 18.7194C20.0154 19.793 23.5814 22.2557 26.3095 24.1556C31.3025 27.646 33.1129 28.6202 34.1443 28.258C34.8546 28.0269 34.7893 27.3106 33.9335 26.2497C32.3471 24.2831 22.6289 16.7876 19.0179 14.7456C16.6764 13.4308 15.1675 13.8363 15.3419 15.7461Z" fill="url(#paint0_linear_726_95)"/>
<path fill-rule="evenodd" clip-rule="evenodd" d="M35.1441 5.83802C35.0943 6.30538 35.2289 7.47817 35.5032 8.45307C35.7562 9.4021 36.4792 12.1507 37.0917 14.604C38.2634 19.1263 39.6147 21.9659 40.3129 21.4027C42.227 19.8587 39.4733 5.80597 37.0023 4.59533C36.0608 4.11631 35.3207 4.62771 35.1441 5.83802Z" fill="url(#paint1_linear_726_95)"/>
<path fill-rule="evenodd" clip-rule="evenodd" d="M12.5615 41.7807C12.0913 43.5267 14.641 43.7766 19.2083 42.399C25.8493 40.4166 30.605 38.161 30.4443 37.0092C30.3947 36.3656 28.3541 36.2178 26.1293 36.6883C22.2087 37.5442 13.7901 40.2342 12.9108 40.9435C12.8333 41.0061 12.674 41.391 12.5615 41.7807Z" fill="url(#paint2_linear_726_95)"/>
<defs>
<linearGradient id="paint0_linear_726_95" x1="17.7389" y1="12.7068" x2="29.3784" y2="7.18168" gradientUnits="userSpaceOnUse">
<stop stop-color="#143C64"/>
<stop offset="1" stop-color="#C70C2C"/>
</linearGradient>
<linearGradient id="paint1_linear_726_95" x1="33.3272" y1="6.57535" x2="45.5004" y2="2.23856" gradientUnits="userSpaceOnUse">
<stop stop-color="#143C64"/>
<stop offset="1" stop-color="#C70C2C"/>
</linearGradient>
<linearGradient id="paint2_linear_726_95" x1="18.7158" y1="36.2678" x2="34.6339" y2="40.6062" gradientUnits="userSpaceOnUse">
<stop stop-color="#143C64"/>
<stop offset="1" stop-color="#C70C2C"/>
</linearGradient>
</defs>
</svg>
