<svg width="88" height="92" viewBox="0 0 88 92" fill="none" xmlns="http://www.w3.org/2000/svg">
<path d="M86.3297 32.7447C87.9327 31.5119 87.4533 29.0607 85.3022 28.9097C74.4367 28.1703 63.5025 28.992 52.8566 31.3066C51.8974 30.156 51.7191 28.4991 51.596 26.9649C51.1575 21.4456 49.9103 12.4342 49.2939 6.16157C49.2257 5.46296 48.3074 5.25764 47.9376 5.87359C47.1154 7.22948 46.3346 8.64017 45.6082 10.0783C45.2658 7.38043 44.923 4.69606 44.6081 2.01169C44.3475 -0.234645 41.3608 -0.85059 40.5795 1.46403C36.4283 13.6666 32.2766 25.8696 28.1249 38.086C19.3013 37.8942 10.2032 37.7985 1.5162 39.3323C0.0776477 39.5924 -0.566152 41.8388 0.611826 42.7696C3.79084 45.3035 7.10643 47.6316 10.5456 49.7274C7.87378 50.6448 5.35294 51.7954 3.28362 53.6307C2.89994 53.973 2.99609 54.6029 3.44805 54.8356C9.18923 57.7666 15.5059 59.5331 21.9179 60.0125C22.6443 60.0538 23.4117 60.1086 24.1516 60.2457C21.74 68.7229 19.712 77.2967 18.095 85.9523C17.7388 87.8284 20.0273 89.5954 21.5207 87.952C24.2747 84.9387 26.933 81.8437 29.5087 78.68C29.6596 81.9529 29.714 85.2263 29.714 88.4996C29.714 89.2256 30.6458 89.5132 31.0434 88.9102C35.373 82.4323 39.6891 75.9408 44.0052 69.4624C49.5541 77.3376 55.9804 84.5825 63.1736 91.0061C64.6126 92.2932 67.2844 91.0744 66.6127 89.0064C65.0511 84.1853 63.489 79.3507 61.9269 74.5162C63.914 75.8038 65.8867 77.0775 67.8734 78.3646C68.4354 78.7348 69.1614 78.2141 68.9831 77.5568C66.5853 68.7503 64.1876 59.9442 61.8038 51.1516C61.6942 50.7545 61.9269 50.3434 62.338 50.2477C69.6273 48.5081 76.6152 45.4679 82.8632 41.3046C83.3291 40.9896 83.2742 40.2636 82.767 40.017C80.9587 39.1405 79.1086 38.3462 77.2316 37.6475C77.4782 37.5379 77.7249 37.4287 77.9715 37.3191C80.8626 36.0455 83.8084 34.6756 86.3297 32.7447ZM75.1767 34.1006C73.9295 34.6482 72.6693 35.1689 71.4087 35.6757C68.8465 36.7162 66.243 37.7024 63.6669 38.7024C60.3374 39.9896 56.967 41.2358 53.7471 42.7696C52.2398 43.4957 50.445 44.3313 49.6089 45.7963C49.3079 46.1117 49.116 46.5637 49.1434 47.1388C49.0886 47.495 49.1434 47.81 49.2391 48.0562C49.4449 49.4534 49.9377 50.7819 50.3762 52.1377C50.9243 53.8634 51.4864 55.6025 52.0479 57.3281C53.2403 60.9986 54.4322 64.6826 55.6241 68.3531C55.9121 69.2297 56.1857 70.1062 56.4737 70.9827C57.693 74.8042 58.9401 78.6252 60.1729 82.4323C55.1308 77.2967 50.5272 71.7361 46.4577 65.8058C44.9918 63.6969 43.608 61.5328 42.2786 59.3143C41.4565 57.931 39.5794 58.0407 38.7299 59.3143C35.7157 63.8614 32.5233 68.2709 29.1524 72.5578C27.3576 74.8725 25.508 77.1457 23.6031 79.3782C24.8363 73.6671 26.234 67.9973 27.7961 62.3545C28.3442 60.4097 28.9058 58.4513 29.4952 56.5064C29.8375 55.3563 29.0841 54.3702 28.0701 53.973C23.8502 52.3296 19.7528 50.3847 15.8074 48.1384C12.8611 46.4815 10.0114 44.6597 7.27086 42.6879C11.2581 42.3042 15.3002 42.2633 19.2874 42.1946C22.2741 42.1537 25.2748 42.1398 28.262 42.2085C28.7004 42.2085 29.1389 42.2085 29.5774 42.222C30.5227 42.2355 31.2765 41.5647 31.5641 40.7156C31.8242 39.9622 32.0848 39.1953 32.3314 38.4418C35.4417 29.3069 38.538 20.1994 41.6348 11.0783C41.8954 13.0915 42.169 15.1182 42.4296 17.1318C43.183 23.089 43.8681 29.0468 44.2244 35.0319C44.3066 36.3465 45.4711 37.4013 46.8275 37.0177C52.1167 35.5248 57.4737 34.429 62.8861 33.7308C67.9147 33.0736 72.9982 32.7582 78.0812 32.7856C77.1085 33.2375 76.1354 33.676 75.1767 34.1006Z" fill="url(#paint0_linear_726_103)"/>
<defs>
<linearGradient id="paint0_linear_726_103" x1="43.7107" y1="0.0589969" x2="144.808" y2="63.3611" gradientUnits="userSpaceOnUse">
<stop stop-color="#143C64"/>
<stop offset="1" stop-color="#C70C2C"/>
</linearGradient>
</defs>
</svg>
