<svg width="16" height="16" viewBox="0 0 16 16" fill="none" xmlns="http://www.w3.org/2000/svg">
<path d="M6.07296 12.0426V12.8244C6.073 13.1303 6.01275 13.4333 5.89567 13.7159C5.77858 13.9986 5.60695 14.2554 5.39058 14.4717L4.90849 14.9538H11.8953L11.4132 14.4717C11.1968 14.2554 11.0252 13.9986 10.9081 13.7159C10.791 13.4333 10.7308 13.1303 10.7308 12.8244V12.0426M15.3887 2.72692V10.2959C15.3887 10.7592 15.2047 11.2035 14.8771 11.531C14.5495 11.8586 14.1052 12.0426 13.642 12.0426H3.1618C2.69854 12.0426 2.25427 11.8586 1.9267 11.531C1.59913 11.2035 1.4151 10.7592 1.4151 10.2959V2.72692M15.3887 2.72692C15.3887 2.26367 15.2047 1.81939 14.8771 1.49182C14.5495 1.16425 14.1052 0.980225 13.642 0.980225H3.1618C2.69854 0.980225 2.25427 1.16425 1.9267 1.49182C1.59913 1.81939 1.4151 2.26367 1.4151 2.72692M15.3887 2.72692V7.96701C15.3887 8.43027 15.2047 8.87455 14.8771 9.20212C14.5495 9.52969 14.1052 9.71371 13.642 9.71371H3.1618C2.69854 9.71371 2.25427 9.52969 1.9267 9.20212C1.59913 8.87455 1.4151 8.43027 1.4151 7.96701V2.72692" stroke="#012069" stroke-width="1.16446" stroke-linecap="round" stroke-linejoin="round"/>
</svg>
