<svg width="17" height="16" viewBox="0 0 17 16" fill="none" xmlns="http://www.w3.org/2000/svg">
<path d="M12.5879 10.3462C12.9388 10.1066 13.3503 9.97124 13.7749 9.95577C14.1994 9.9403 14.6197 10.0453 14.9871 10.2588C15.3544 10.4722 15.6538 10.7852 15.8507 11.1617C16.0475 11.5382 16.1338 11.9627 16.0994 12.3862C15.1996 12.7007 14.2438 12.8231 13.2937 12.7454C13.2908 11.8954 13.046 11.063 12.5879 10.3469C12.1814 9.70928 11.6205 9.18447 10.9573 8.82107C10.2941 8.45767 9.54994 8.26743 8.79369 8.26794C8.03757 8.26756 7.29356 8.45786 6.63049 8.82125C5.96741 9.18465 5.40669 9.70939 5.00019 10.3469M13.2929 12.7447L13.2937 12.7679C13.2937 12.9367 13.2847 13.1032 13.2659 13.2674C11.905 14.0483 10.3628 14.458 8.79369 14.4554C7.16619 14.4554 5.63844 14.0234 4.32144 13.2674C4.30216 13.0939 4.29289 12.9193 4.29369 12.7447M4.29369 12.7447C3.34391 12.8251 2.38862 12.7032 1.48944 12.3869C1.4552 11.9636 1.54149 11.5392 1.73831 11.1629C1.93514 10.7865 2.23447 10.4735 2.60169 10.2602C2.96892 10.0468 3.38904 9.94168 3.81348 9.95704C4.23792 9.9724 4.64935 10.1076 5.00019 10.3469M4.29369 12.7447C4.29638 11.8947 4.54241 11.0631 5.00019 10.3469M11.0437 3.76794C11.0437 4.36468 10.8066 4.93698 10.3847 5.35893C9.96272 5.78089 9.39043 6.01794 8.79369 6.01794C8.19695 6.01794 7.62466 5.78089 7.2027 5.35893C6.78074 4.93698 6.54369 4.36468 6.54369 3.76794C6.54369 3.17121 6.78074 2.59891 7.2027 2.17695C7.62466 1.755 8.19695 1.51794 8.79369 1.51794C9.39043 1.51794 9.96272 1.755 10.3847 2.17695C10.8066 2.59891 11.0437 3.17121 11.0437 3.76794ZM15.5437 6.01794C15.5437 6.23955 15.5 6.45899 15.4152 6.66372C15.3304 6.86846 15.2061 7.05449 15.0494 7.21119C14.8927 7.36789 14.7067 7.49219 14.502 7.57699C14.2972 7.6618 14.0778 7.70544 13.8562 7.70544C13.6346 7.70544 13.4151 7.6618 13.2104 7.57699C13.0057 7.49219 12.8196 7.36789 12.6629 7.21119C12.5062 7.05449 12.3819 6.86846 12.2971 6.66372C12.2123 6.45899 12.1687 6.23955 12.1687 6.01794C12.1687 5.57039 12.3465 5.14117 12.6629 4.8247C12.9794 4.50823 13.4086 4.33044 13.8562 4.33044C14.3037 4.33044 14.733 4.50823 15.0494 4.8247C15.3659 5.14117 15.5437 5.57039 15.5437 6.01794ZM5.41869 6.01794C5.41869 6.23955 5.37504 6.45899 5.29024 6.66372C5.20543 6.86846 5.08113 7.05449 4.92443 7.21119C4.76773 7.36789 4.58171 7.49219 4.37697 7.57699C4.17223 7.6618 3.9528 7.70544 3.73119 7.70544C3.50958 7.70544 3.29015 7.6618 3.08541 7.57699C2.88067 7.49219 2.69465 7.36789 2.53795 7.21119C2.38125 7.05449 2.25695 6.86846 2.17214 6.66372C2.08734 6.45899 2.04369 6.23955 2.04369 6.01794C2.04369 5.57039 2.22148 5.14117 2.53795 4.8247C2.85441 4.50823 3.28364 4.33044 3.73119 4.33044C4.17874 4.33044 4.60797 4.50823 4.92443 4.8247C5.2409 5.14117 5.41869 5.57039 5.41869 6.01794Z" stroke="#FFAA00" stroke-width="1.5" stroke-linecap="round" stroke-linejoin="round"/>
</svg>
