<svg width="18" height="16" viewBox="0 0 18 16" fill="none" xmlns="http://www.w3.org/2000/svg">
<path d="M11.4383 13.5006C12.1005 13.6928 12.7866 13.79 13.4762 13.7893C14.585 13.7909 15.6795 13.5381 16.6753 13.0503C16.7048 12.3545 16.5066 11.668 16.1108 11.095C15.715 10.522 15.1432 10.0936 14.482 9.8748C13.8209 9.65599 13.1064 9.65869 12.4469 9.88248C11.7874 10.1063 11.2188 10.539 10.8274 11.115M11.4383 13.5006V13.4982C11.4383 12.6342 11.2163 11.8214 10.8274 11.115M11.4383 13.5006V13.5828C9.94432 14.4827 8.23266 14.9567 6.48859 14.9538C4.67901 14.9538 2.98588 14.4531 1.54039 13.5828L1.53961 13.4982C1.53902 12.3993 1.90418 11.3315 2.57753 10.4631C3.25087 9.59462 4.19411 8.975 5.25852 8.70187C6.32293 8.42874 7.44797 8.51764 8.45627 8.95455C9.46458 9.39147 10.2988 10.1515 10.8274 11.115M9.10941 3.60027C9.10941 4.29515 8.83337 4.96157 8.34202 5.45292C7.85066 5.94428 7.18424 6.22032 6.48937 6.22032C5.79449 6.22032 5.12807 5.94428 4.63671 5.45292C4.14536 4.96157 3.86932 4.29515 3.86932 3.60027C3.86932 2.90539 4.14536 2.23897 4.63671 1.74762C5.12807 1.25626 5.79449 0.980225 6.48937 0.980225C7.18424 0.980225 7.85066 1.25626 8.34202 1.74762C8.83337 2.23897 9.10941 2.90539 9.10941 3.60027ZM15.514 5.34697C15.514 5.88743 15.2993 6.40576 14.9171 6.78792C14.5349 7.17008 14.0166 7.38478 13.4762 7.38478C12.9357 7.38478 12.4174 7.17008 12.0352 6.78792C11.653 6.40576 11.4383 5.88743 11.4383 5.34697C11.4383 4.80651 11.653 4.28818 12.0352 3.90602C12.4174 3.52385 12.9357 3.30915 13.4762 3.30915C14.0166 3.30915 14.5349 3.52385 14.9171 3.90602C15.2993 4.28818 15.514 4.80651 15.514 5.34697Z" stroke="#143C64" stroke-width="1.16446" stroke-linecap="round" stroke-linejoin="round"/>
</svg>
