<svg width="38" height="39" viewBox="0 0 38 39" fill="none" xmlns="http://www.w3.org/2000/svg">
<g clip-path="url(#clip0_43_8)">
<path fill-rule="evenodd" clip-rule="evenodd" d="M15.02 9.06766C14.5705 10.2126 13.2635 10.7829 12.101 10.3428C10.9419 9.90294 10.3646 8.61263 10.8147 7.47021C11.2642 6.32541 12.5688 5.75512 13.7279 6.1953C14.8925 6.63786 15.4672 7.92286 15.02 9.06766Z" fill="#143C64"/>
<mask id="mask0_43_8" style="mask-type:luminance" maskUnits="userSpaceOnUse" x="0" y="0" width="38" height="39">
<path d="M0.140747 0.911621H37.8124V38.4396H0.140747V0.911621Z" fill="white"/>
</mask>
<g mask="url(#mask0_43_8)">
<path d="M23.8686 26.6538C24.2279 26.6811 24.5906 26.8492 24.9734 27.2313L34.1419 36.454H30.4086L23.8686 26.6538ZM14.7499 20.5882C14.9951 20.5811 15.2898 20.6309 15.64 20.751C17.0443 21.2258 17.6263 21.8892 17.9738 22.5016C18.3984 23.2509 18.5087 24.4467 18.5912 26.5415C18.6012 26.7143 18.6463 26.8563 18.7136 26.9817L16.435 28.2965C15.2475 28.9839 14.5106 29.2315 13.0664 29.2315H12.994C13.239 26.6663 13.5064 24.2389 13.6689 22.0116C13.7305 21.1614 14.0182 20.6108 14.7499 20.5882ZM25.9154 0.910173C25.8303 0.898262 25.7209 0.925567 25.5928 0.995204C23.3393 2.21258 21.1921 1.63257 18.9137 2.84811C18.8287 2.69014 18.6608 2.59503 18.4838 2.59796C18.1589 2.60328 17.8466 2.95751 17.9488 3.26813L21.1524 13.6058C20.3277 14.4257 19.6956 14.6509 18.941 14.5486C18.1713 14.4435 17.2142 13.8785 16.1645 12.5959C15.3895 11.6532 14.2702 11.3809 13.3356 11.3382C12.4033 11.2937 11.5435 11.401 10.9217 11.3358C9.60465 11.2009 8.60957 10.5538 7.85822 9.50067C7.10577 8.45043 6.64854 6.97339 6.41342 5.34039C6.21331 3.95021 4.58874 4.43254 4.6439 5.40985C4.86656 9.38266 6.85287 12.9257 10.9241 13.7181C11.5387 17.758 11.6111 23.0864 11.0487 29.2311H10.5796C8.62239 29.2311 8.12302 29.6286 6.60346 31.0787L0.398222 36.9944C-0.00860646 37.3842 0.135799 38.4269 0.866075 38.4269H37.2012C37.748 38.4269 38.013 37.5469 37.466 36.9944L25.9509 25.4139C24.7662 24.2216 23.1469 24.4194 21.4278 25.4139L20.4974 25.9492C20.425 24.1218 20.3358 22.7488 19.6529 21.5489C18.9855 20.3736 17.7286 19.3815 15.9197 18.6014L15.6495 14.8712C16.6048 15.7636 17.6115 16.3156 18.6815 16.4635C19.7985 16.6156 20.8078 16.3035 21.7727 15.6057L23.772 22.0534C23.9741 22.7037 24.9787 22.3812 24.7762 21.7306L22.6571 14.888C22.6595 14.8857 22.6624 14.8857 22.6624 14.8827C23.3245 14.2351 22.8172 13.3547 22.1427 13.2252L20.3583 7.46488C22.6398 6.25282 24.7816 6.8222 27.0505 5.60776C27.3955 5.42286 27.4003 5.30246 27.3 4.98231L26.0885 1.06191C26.0578 0.972664 26.0002 0.922635 25.9154 0.910173Z" fill="#143C64"/>
</g>
</g>
<defs>
<clipPath id="clip0_43_8">
<rect width="38" height="38" fill="white" transform="translate(0 0.674072)"/>
</clipPath>
</defs>
</svg>
