<svg width="17" height="17" viewBox="0 0 17 17" fill="none" xmlns="http://www.w3.org/2000/svg">
<path d="M11.0711 10.0656C11.2273 10.7264 11.2319 11.414 11.0846 12.0768C10.9373 12.7396 10.6419 13.3606 10.2205 13.893C9.79918 14.4255 9.2628 14.8557 8.65157 15.1514C8.04034 15.4471 7.37011 15.6007 6.6911 15.6006V12.0006M11.0711 10.0656C12.5035 9.02217 13.6688 7.65471 14.4717 6.0749C15.2747 4.49509 15.6925 2.74774 15.6911 0.975589C13.9191 0.974309 12.1719 1.3922 10.5922 2.19514C9.01254 2.99807 7.64519 4.16328 6.60185 5.59559M11.0711 10.0656C9.76753 11.019 8.27384 11.6791 6.6911 12.0006M6.6911 12.0006C6.61385 12.0163 6.53585 12.0313 6.45785 12.0456C5.77744 11.5061 5.16139 10.89 4.62185 10.2096C4.63602 10.1314 4.65027 10.0534 4.6661 9.97559M6.60185 5.59559C5.941 5.43929 5.25333 5.43458 4.5904 5.58182C3.92747 5.72906 3.30646 6.02443 2.77391 6.4458C2.24135 6.86716 1.81107 7.4036 1.51531 8.01489C1.21955 8.62619 1.06598 9.2965 1.0661 9.97559H4.6661M6.60185 5.59559C5.64851 6.89895 4.98767 8.39312 4.6661 9.97559M2.98685 11.7681C2.49349 12.135 2.1099 12.6298 1.87762 13.1991C1.64534 13.7683 1.57323 14.3903 1.6691 14.9976C2.27647 15.0934 2.89847 15.0211 3.46773 14.7887C4.037 14.5563 4.53182 14.1726 4.8986 13.6791M11.7536 6.03809C11.7536 6.33646 11.6351 6.62261 11.4241 6.83358C11.2131 7.04456 10.927 7.16309 10.6286 7.16309C10.3302 7.16309 10.0441 7.04456 9.83311 6.83358C9.62213 6.62261 9.5036 6.33646 9.5036 6.03809C9.5036 5.73972 9.62213 5.45357 9.83311 5.24259C10.0441 5.03162 10.3302 4.91309 10.6286 4.91309C10.927 4.91309 11.2131 5.03162 11.4241 5.24259C11.6351 5.45357 11.7536 5.73972 11.7536 6.03809Z" stroke="#C8102E" stroke-width="1.5" stroke-linecap="round" stroke-linejoin="round"/>
</svg>
