<svg width="17" height="16" viewBox="0 0 17 16" fill="none" xmlns="http://www.w3.org/2000/svg">
<path d="M2.1911 0.955444V9.39294C2.1911 9.8405 2.36889 10.2697 2.68536 10.5862C3.00183 10.9027 3.43105 11.0804 3.8786 11.0804H5.5661M2.1911 0.955444H1.0661M2.1911 0.955444H14.5661M5.5661 11.0804H11.1911M5.5661 11.0804L4.8161 13.3304M14.5661 0.955444H15.6911M14.5661 0.955444V9.39294C14.5661 9.8405 14.3883 10.2697 14.0718 10.5862C13.7554 10.9027 13.3262 11.0804 12.8786 11.0804H11.1911M11.1911 11.0804L11.9411 13.3304M4.8161 13.3304H11.9411M4.8161 13.3304L4.4411 14.4554M11.9411 13.3304L12.3161 14.4554M5.0036 7.70544L7.2536 5.45544L8.8646 7.06644C9.6215 5.97992 10.6077 5.07281 11.7536 4.40919" stroke="#6403FF" stroke-width="1.5" stroke-linecap="round" stroke-linejoin="round"/>
</svg>
